<svg xmlns="http://www.w3.org/2000/svg" xmlns:xlink="http://www.w3.org/1999/xlink" aria-hidden="true" role="img" class="iconify iconify--ph" width="32" height="32" preserveAspectRatio="xMidYMid meet" viewBox="0 0 256 256"><path d="M176 162a37.91 37.91 0 0 0-28.3 12.675l-48.9-31.436a37.885 37.885 0 0 0 0-30.478l48.9-31.436a37.945 37.945 0 1 0-6.5-10.086l-48.9 31.435a38 38 0 1 0 0 50.652l48.9 31.435A37.993 37.993 0 1 0 176 162zm0-132a26 26 0 1 1-26 26a26.029 26.029 0 0 1 26-26zM64 154a26 26 0 1 1 26-26a26.029 26.029 0 0 1-26 26zm112 72a26 26 0 1 1 26-26a26.029 26.029 0 0 1-26 26z" fill="currentColor"></path></svg>